<?xml version="1.0" encoding="iso-8859-1"?>
<!-- Generator: Adobe Illustrator 19.0.0, SVG Export Plug-In . SVG Version: 6.00 Build 0)  -->
<svg version="1.1" id="Layer_1" xmlns="http://www.w3.org/2000/svg" xmlns:xlink="http://www.w3.org/1999/xlink" x="0px" y="0px"
	 viewBox="0 0 511.904 511.904" style="enable-background:new 0 0 511.904 511.904;" xml:space="preserve">
<g>
	<g>
		<path d="M471.904,62.216H40c-22,0-40,18-40,40v307.472c0,22,18,40,40,40h431.904c22,0,40-18,40-40V102.216
			C511.904,80.216,493.904,62.216,471.904,62.216z M40,94.216h431.904c3.904,0,7.112,3.016,7.744,6.768L256.744,287L32.488,99.856
			C33.536,96.648,36.496,94.216,40,94.216z M479.904,331.824H351.952v32h127.952v45.864c0,4.336-3.664,8-8,8H40
			c-4.336,0-8-3.664-8-8v-93.864h127.952v-32H32V141.12l224.744,187.552l223.16-186.232V331.824z"/>
	</g>
</g>
<g>
</g>
<g>
</g>
<g>
</g>
<g>
</g>
<g>
</g>
<g>
</g>
<g>
</g>
<g>
</g>
<g>
</g>
<g>
</g>
<g>
</g>
<g>
</g>
<g>
</g>
<g>
</g>
<g>
</g>
</svg>
